<?xml version="1.0" encoding="UTF-8" standalone="no"?>
<!-- Created with Inkscape (http://www.inkscape.org/) -->

<svg
   width="1024"
   height="1024"
   viewBox="0 0 270.93333 270.93333"
   version="1.1"
   id="svg1"
   xml:space="preserve"
   sodipodi:docname="icon.svg"
   inkscape:version="1.3.2 (091e20e, 2023-11-25, custom)"
   xmlns:inkscape="http://www.inkscape.org/namespaces/inkscape"
   xmlns:sodipodi="http://sodipodi.sourceforge.net/DTD/sodipodi-0.dtd"
   xmlns="http://www.w3.org/2000/svg"
   xmlns:svg="http://www.w3.org/2000/svg"><sodipodi:namedview
     id="namedview1"
     pagecolor="#ffffff"
     bordercolor="#666666"
     borderopacity="1.0"
     inkscape:showpageshadow="2"
     inkscape:pageopacity="0.0"
     inkscape:pagecheckerboard="0"
     inkscape:deskcolor="#d1d1d1"
     inkscape:zoom="0.71777344"
     inkscape:cx="512"
     inkscape:cy="512"
     inkscape:window-width="1920"
     inkscape:window-height="991"
     inkscape:window-x="-9"
     inkscape:window-y="-9"
     inkscape:window-maximized="1"
     inkscape:current-layer="svg1" /><defs
     id="defs1" /><g
     id="layer2"
     style="display:inline"><path
       style="fill:#f4dfa5;fill-opacity:1;stroke:#000000;stroke-width:0.264583px;stroke-linecap:butt;stroke-linejoin:miter;stroke-opacity:1"
       d="m 84.352039,69.299999 c 0,0 -16.178189,-3.418736 -16.653531,-14.281758 -0.684257,-15.637351 8.422983,-24.916053 9.815714,-24.977296 4.757802,-0.209219 14.61639,2.235075 14.61639,2.235075 z"
       id="path1" /><path
       style="fill:#f4dfa5;fill-opacity:1;stroke:#000000;stroke-width:0.264583px;stroke-linecap:butt;stroke-linejoin:miter;stroke-opacity:1"
       d="m 77.555998,30.037518 c 3.114861,-0.209219 3.999193,7.548696 4.281042,9.909574 3.734639,31.282769 1.900071,62.529818 0.900441,93.812588 l -0.708909,73.0291 c 0,0 -0.0339,5.30475 1.756784,14.56169 1.835096,9.48656 3.923818,9.52808 3.923818,9.52808 l 64.932666,-1.15814 37.54789,-71.36944 c 0,0 3.54908,-31.37373 3.10949,-73.48147 -0.55489,-53.15281 -9.33213,-53.392451 -9.33213,-53.392451 z"
       id="path1-0" /><path
       style="fill:#f4dfa5;fill-opacity:1;stroke:#000000;stroke-width:0.264583px;stroke-linecap:butt;stroke-linejoin:miter;stroke-opacity:1"
       d="m 87.770078,230.8771 c 4.534022,-0.82649 1.233851,-10.75898 28.926482,-15.95899 9.31348,-1.74885 25.2524,-2.78843 25.2524,-2.78843 l 12.5677,17.5948 c 0,0 -67.203999,1.236 -66.746582,1.15262 z"
       id="path2" /></g><g
     id="layer5"><path
       style="fill:#000000"
       d="m 168.26808,207.96897 c -7.16602,-0.59232 -12.89315,-9.08718 -10.08738,-15.76922 3.90003,-6.5454 14.81375,-5.06567 17.61714,1.76639 4.29404,6.12958 0.73055,15.37813 -7.52976,14.00283 z m 3.24806,-3.03168 c 5.63947,-3.3989 1.93238,-13.20986 -4.12947,-13.85432 -7.60885,-1.54196 -7.85686,8.8909 -3.05785,12.38862 1.86602,1.68134 4.79922,2.49585 7.18732,1.4657 z m -49.67552,2.75358 c -7.25976,-0.42992 -12.54109,-8.78442 -10.18809,-15.49791 3.45128,-6.30353 14.14952,-6.08881 17.32745,0.25311 4.11812,4.71839 3.14262,13.94482 -3.93985,15.06995 -1.01953,0.85218 -2.12294,0.15866 -3.19951,0.17485 z m 2.96411,-2.95923 c 5.92161,-2.86097 3.03663,-13.05956 -2.90358,-13.96222 -7.55974,-2.14884 -9.10322,7.62997 -4.68833,11.90141 2.08307,1.81498 4.81397,3.07049 7.59191,2.06081 z m 14.49839,3.05107 c -4.54503,-4.46396 -2.57096,-12.48368 -5.54781,-17.95655 2.73397,-4.31947 10.88104,-0.93387 15.2837,0.36135 7.24612,2.72885 5.58229,12.15539 -0.77199,14.72008 -2.2341,2.11034 -5.94527,2.99144 -8.9639,2.87512 z m 4.90153,-3.59805 c 7.04964,-2.16465 8.9924,-12.30139 0.0779,-13.04692 -4.41492,-1.61544 -8.66583,-1.14704 -5.62795,4.30407 1.04729,3.01476 -0.16736,11.57057 5.5501,8.74285 z m -42.61764,3.19417 c -3.531941,-4.96643 -3.085396,-12.01436 -5.931756,-17.16364 -2.404049,0.95645 -11.7613,-1.65394 -5.03546,-2.433 4.644302,0.84192 13.846626,-2.44904 15.729046,2.0648 -3.14505,0.73083 -9.223478,-1.37003 -5.98549,4.07248 -0.63933,3.07626 6.62595,14.35709 1.22366,13.45936 z m 63.51298,-31.9951 c -7.12918,-1.14416 -8.59032,-9.32135 -8.29248,-15.30183 0.0219,-7.11567 8.04303,-13.94668 14.85565,-10.06316 5.21205,3.98589 5.37286,12.48079 3.38221,18.23028 -1.16212,4.06385 -5.57171,7.97355 -9.94538,7.13471 z m 3.60145,-3.91573 c 5.07981,-3.00524 5.28144,-11.02203 2.74855,-15.7873 -3.81335,-7.06763 -13.22865,0.44628 -11.10512,6.83078 -0.27382,4.58014 2.60661,11.48934 8.35657,8.95652 z m -32.68436,2.95855 c -1.7935,-6.07239 -0.41991,-12.89469 -0.85108,-19.26785 -0.71268,-3.15855 -0.61227,-8.08141 3.93457,-6.59191 5.67981,-0.13059 12.23361,2.21465 14.22922,8.03614 1.07446,5.88111 -2.62733,11.20789 -7.3119,14.40347 -2.43196,2.39093 -6.62646,4.53522 -10.00081,3.42015 z m 5.3554,-4.00265 c 5.23768,-2.66832 12.59539,-10.82822 6.5296,-15.98826 -2.2339,-1.47651 -10.99615,-5.67115 -9.49491,0.0457 1.46709,3.89139 -3.68438,17.38384 2.96531,15.94253 z m -22.30999,3.94366 c -7.90948,-1.47966 -8.7119,-11.04819 -7.93164,-17.56609 1.40416,-6.16218 8.67104,-11.60483 14.66022,-7.84107 5.02839,3.5961 5.35741,11.0981 4.28577,16.79455 -1.41305,4.72839 -5.504,9.76009 -11.01435,8.61261 z m 3.70277,-3.78639 c 5.81733,-3.52479 5.72855,-12.56212 1.98578,-17.65201 -6.6295,-4.52277 -12.39366,4.79487 -10.09418,10.89109 0.0802,4.00665 3.62021,8.95759 8.1084,6.76092 z m -23.086026,3.49204 c -2.823511,-5.70467 -1.514038,-12.70138 -2.254445,-18.96623 3.598901,-7.47431 -11.298612,-1.69619 -7.042207,-7.50651 5.604077,0.2935 12.691838,-1.30466 17.431708,1.46009 -0.0213,4.4128 -9.201584,-0.92829 -7.14794,4.73236 0.22272,6.52957 0.5651,13.06311 1.12666,19.56862 -0.40061,0.661 -1.35892,1.36882 -2.113776,0.71167 z m 66.743676,-39.11918 c -7.61696,-1.61436 -8.10759,-10.79494 -7.32554,-17.07613 1.30468,-6.06932 7.8718,-11.20263 14.08383,-8.50182 5.57494,3.4361 5.40364,11.17257 4.51011,16.92423 -1.51597,4.81448 -5.59166,9.84731 -11.2684,8.65372 z m 3.91191,-3.64293 c 5.5406,-3.58003 5.78326,-12.04294 2.46848,-17.18615 -6.10994,-5.12012 -12.59576,3.98853 -10.36109,10.0002 -0.24479,4.11229 3.31775,9.22587 7.89261,7.18595 z m -32.48691,2.75498 c -2.3243,-5.89722 -0.14741,-12.96663 -0.55683,-19.33792 -1.55634,-4.92256 1.33942,-8.09725 6.56341,-6.43903 5.58869,0.20056 12.53064,4.41999 11.49676,10.78936 -0.18567,6.31486 -5.96272,10.77968 -10.90148,13.85439 -2.07255,0.64252 -4.42954,1.96558 -6.60186,1.1332 z m 5.35535,-4.07449 c 4.65248,-2.91184 10.44468,-7.76367 8.63827,-13.98251 -3.29133,-4.76629 -14.63935,-7.97997 -11.43246,1.59821 0.92522,3.2245 -3.27651,14.34955 2.79419,12.3843 z m -22.27779,3.85086 c -7.51519,-1.33359 -8.58264,-10.27385 -8.01058,-16.50327 1.20945,-6.36326 7.46273,-11.85967 14.13355,-9.6752 5.65257,2.88441 5.40117,10.04448 5.4219,15.56049 -1.03208,5.36422 -5.31683,11.71574 -11.54487,10.61798 z m 3.76191,-3.86589 c 5.76055,-3.63837 5.9479,-12.82056 1.90216,-17.82744 -7.28882,-4.13537 -12.1872,5.91327 -9.92483,11.97302 0.375,3.74897 4.00505,7.76373 8.02267,5.85442 z m -23.2924,3.4606 c -2.775158,-5.97446 -1.1689,-13.20003 -1.866055,-19.67416 3.080325,-6.37921 -12.421778,-1.89435 -6.497832,-7.18693 5.395244,0.27173 10.855017,0.0291 16.189077,0.89813 2.96671,5.52959 -10.266795,-0.35291 -6.47159,7.27104 -0.52877,6.06645 1.69869,13.15952 -0.079,18.59869 l -0.64301,0.23507 -0.63167,-0.14187 z m 65.44429,-34.763443 c -6.82536,-1.411077 -8.23413,-9.307239 -8.11963,-15.19768 0.0159,-6.821422 7.08516,-13.316388 13.93264,-10.347543 6.14199,4.037972 6.61654,13.334319 4.08938,19.603274 -1.2808,3.718542 -5.89784,6.988825 -9.90239,5.941949 z m 4.08054,-3.849233 c 5.33652,-3.902901 5.44612,-13.739104 0.39061,-17.83073 -7.51122,-3.358657 -10.73849,6.831737 -8.63507,12.492399 0.77445,3.71943 4.13243,7.605297 8.24446,5.338331 z m -32.27815,2.959452 c -3.46734,-4.676587 -0.74647,-11.669024 -1.60462,-17.296914 -1.16195,-5.213098 -0.52442,-11.32363 6.5582,-8.547023 5.76132,0.222641 12.70416,4.797409 11.65765,11.365786 -0.66761,6.339548 -6.42036,11.181356 -11.88911,13.729852 -1.61061,0.04694 -3.12388,1.363932 -4.72212,0.748299 z m 4.47339,-4.213566 c 5.06759,-2.338622 11.88212,-9.45105 7.55338,-14.989124 -2.92751,-3.312618 -13.37049,-7.005448 -10.47013,1.360951 1.15006,3.124272 -2.75691,15.233292 2.91675,13.628173 z m -22.20047,3.522714 c -7.50946,-1.639217 -8.59744,-10.639124 -7.98051,-17.014922 0.89816,-6.736607 9.39024,-12.454273 15.2594,-7.714624 4.61042,4.046749 4.95154,11.527865 3.57808,17.208209 -1.40125,4.477176 -5.80771,8.770736 -10.85697,7.521337 z m 3.91191,-3.6174 c 5.81241,-3.795687 6.17928,-14.917891 0.0568,-18.38709 -7.13189,-2.698689 -10.02512,7.003296 -8.21489,12.394418 0.4206,3.587558 4.17639,7.965819 8.15805,5.992672 z m -23.26737,3.031082 c -2.2697,-5.354886 -1.595322,-11.634015 -2.251746,-17.396353 2.540546,-7.459791 -5.049962,-4.592679 -8.242519,-7.438604 3.550242,-4.02034 11.720035,-0.501393 16.986205,-1.067827 5.56925,5.605881 -9.81392,-0.526557 -5.52929,7.00223 -0.16024,6.256816 1.68158,13.05427 0.69818,18.943896 l -0.81074,0.266715 -0.85001,-0.31006 z m 65.92212,-33.276502 c -7.25658,-1.454102 -9.81344,-10.250296 -8.8176,-16.664312 1.29138,-7.002485 10.48701,-9.887349 15.49993,-4.926356 4.01105,5.724525 5.81194,15.249671 -0.33195,20.15864 -1.77102,1.313049 -4.16707,2.015377 -6.35038,1.432028 z m 3.90786,-3.556784 c 5.075,-3.675019 4.06024,-13.271959 -1.10077,-16.431804 -7.26637,-3.365182 -10.39786,6.618109 -7.49165,11.870473 1.08893,3.362712 5.00386,6.720484 8.59242,4.561331 z m -32.2108,2.473649 c -3.3657,-5.201311 -1.38869,-12.608714 -2.67966,-18.663083 -3.47801,-7.310131 7.7537,-5.793681 11.33874,-3.342368 7.15263,1.189311 9.34334,10.901583 4.26233,15.639938 -3.45047,3.33016 -7.76787,7.231209 -12.92141,6.365513 z m 5.0723,-3.90784 c 5.06114,-2.372502 11.22479,-10.682778 4.54417,-14.701458 -3.0712,-1.853962 -11.53803,-5.106487 -9.06358,1.532752 1.46263,3.472632 -2.20376,15.622346 4.51941,13.168706 z m -22.00067,3.372141 c -7.94573,-1.263186 -10.40329,-10.585555 -9.1089,-17.451217 1.7142,-5.924641 9.45311,-9.021605 14.44953,-5.266465 4.96269,4.229562 6.07661,12.314432 3.48733,18.103307 -1.63469,2.889115 -5.44986,5.365765 -8.82796,4.614375 z m 3.55944,-3.7234 c 5.32016,-3.714943 4.31197,-14.137021 -1.58943,-16.745959 -7.21363,-2.508346 -9.70146,7.108366 -7.1567,12.269878 1.19475,3.391953 5.06203,6.689835 8.74613,4.476081 z m -23.66675,2.526269 c -2.384634,-6.276623 -2.441499,-13.239806 -3.334026,-19.866905 -0.226505,-2.92143 -10.906436,0.439901 -7.0591,-4.041883 5.35564,0.622928 13.847096,-1.663038 17.198166,2.468752 -3.60095,1.273077 -9.148573,-0.897253 -6.60307,5.284251 -0.54379,5.285907 4.0446,12.988785 0.82626,16.829363 l -0.52286,-0.189989 -0.50582,-0.483598 z"
       id="path13" /></g><g
     id="layer3"
     style="display:inline"><path
       style="fill:#dfdfdf;fill-opacity:1;stroke:#000000;stroke-width:0.264583px;stroke-linecap:butt;stroke-linejoin:miter;stroke-opacity:1"
       d="m 37.703125,130.96875 c -11.276993,5.88147 -21.716433,16.5301 -23.944792,29.36875 -2.921198,16.83043 2.695063,29.09859 14.981058,41.38459 2.750746,2.75074 18.174595,20.59315 45.508332,11.1125 12.935525,-4.48667 25.005818,-15.7431 29.072067,-28.81688 C 110.7555,160.11045 97.797403,142.40689 87.973957,134.27604 68.843627,118.4419 51.269239,123.8934 37.703125,130.96875 Z"
       id="path4" /><ellipse
       style="display:inline;fill:#ffffff;fill-opacity:1;fill-rule:evenodd;stroke:#ffffff;stroke-width:0.264583;stroke-linecap:round;stroke-linejoin:round;stroke-dasharray:none"
       id="path3"
       cx="118.83627"
       cy="151.49242"
       rx="20.703646"
       ry="31.882292"
       transform="rotate(12.920262)" /><ellipse
       style="display:inline;fill:#ffffff;fill-opacity:1;fill-rule:evenodd;stroke:#ffffff;stroke-width:0.264583;stroke-linecap:round;stroke-linejoin:round;stroke-dasharray:none"
       id="path3-4"
       transform="rotate(-44.389477)"
       ry="30.364477"
       rx="14.373591"
       cy="162.90996"
       cx="-106.00377" /><ellipse
       style="display:inline;fill:#ffffff;fill-opacity:1;fill-rule:evenodd;stroke:#ffffff;stroke-width:0.264583;stroke-linecap:round;stroke-linejoin:round;stroke-dasharray:none"
       id="path3-4-7"
       transform="rotate(67.390652)"
       ry="30.364477"
       rx="14.913033"
       cy="10.872772"
       cx="151.7982" /><ellipse
       style="fill:#000000;fill-opacity:1;fill-rule:evenodd;stroke:none;stroke-width:0.338789;stroke-linecap:round;stroke-linejoin:round;stroke-dasharray:none"
       id="path5"
       cx="-103.28081"
       cy="144.67885"
       rx="2.455591"
       ry="6.078619"
       transform="matrix(0.73209425,-0.68120336,0.68199301,0.73135869,0,0)" /><ellipse
       style="fill:#000000;fill-opacity:1;fill-rule:evenodd;stroke:none;stroke-width:0.338789;stroke-linecap:round;stroke-linejoin:round;stroke-dasharray:none"
       id="path5-0"
       cx="-100.10865"
       cy="185.62563"
       rx="2.455591"
       ry="6.078619"
       transform="matrix(0.73209425,-0.68120336,0.68199301,0.73135869,0,0)" /><ellipse
       style="fill:#000000;fill-opacity:1;fill-rule:evenodd;stroke:none;stroke-width:0.374916;stroke-linecap:round;stroke-linejoin:round;stroke-dasharray:none"
       id="path6"
       cx="7.8824115"
       cy="141.39384"
       rx="5.807683"
       ry="2.5186028"
       transform="matrix(0.93151972,-0.36369083,0.28462808,0.95863802,0,0)" /><ellipse
       style="fill:#000000;fill-opacity:1;fill-rule:evenodd;stroke:none;stroke-width:0.374916;stroke-linecap:round;stroke-linejoin:round;stroke-dasharray:none"
       id="path6-9"
       cx="5.1541581"
       cy="151.51022"
       rx="5.807683"
       ry="2.5186028"
       transform="matrix(0.93151972,-0.36369083,0.28462808,0.95863802,0,0)" /><ellipse
       style="fill:#000000;fill-opacity:1;fill-rule:evenodd;stroke:none;stroke-width:0.374916;stroke-linecap:round;stroke-linejoin:round;stroke-dasharray:none"
       id="path6-7"
       cx="2.3419914"
       cy="161.86407"
       rx="5.807683"
       ry="2.5186028"
       transform="matrix(0.93151972,-0.36369083,0.28462808,0.95863802,0,0)" /><ellipse
       style="fill:#000000;fill-opacity:1;fill-rule:evenodd;stroke:none;stroke-width:0.300776;stroke-linecap:round;stroke-linejoin:round;stroke-dasharray:none"
       id="path7"
       cx="98.478737"
       cy="155.88443"
       rx="3.9503827"
       ry="6.1316571"
       transform="matrix(0.98074882,0.19527354,-0.18209997,0.98328002,0,0)" /><ellipse
       style="fill:#000000;fill-opacity:1;fill-rule:evenodd;stroke:none;stroke-width:0.300776;stroke-linecap:round;stroke-linejoin:round;stroke-dasharray:none"
       id="path7-0"
       cx="105.53635"
       cy="166.20007"
       rx="3.9503827"
       ry="6.1316571"
       transform="matrix(0.98074882,0.19527354,-0.18209997,0.98328002,0,0)" /><ellipse
       style="fill:#000000;fill-opacity:1;fill-rule:evenodd;stroke:none;stroke-width:0.300776;stroke-linecap:round;stroke-linejoin:round;stroke-dasharray:none"
       id="path7-5"
       cx="112.82401"
       cy="176.39058"
       rx="3.9503827"
       ry="6.1316571"
       transform="matrix(0.98074882,0.19527354,-0.18209997,0.98328002,0,0)" /><ellipse
       style="fill:#000000;fill-opacity:1;fill-rule:evenodd;stroke:none;stroke-width:0.300776;stroke-linecap:round;stroke-linejoin:round;stroke-dasharray:none"
       id="path7-9"
       cx="127.78432"
       cy="155.2565"
       rx="3.9503827"
       ry="6.1316571"
       transform="matrix(0.98074882,0.19527354,-0.18209997,0.98328002,0,0)" /><ellipse
       style="fill:#000000;fill-opacity:1;fill-rule:evenodd;stroke:none;stroke-width:0.300776;stroke-linecap:round;stroke-linejoin:round;stroke-dasharray:none"
       id="path7-1"
       cx="120.76891"
       cy="145.07918"
       rx="3.9503827"
       ry="6.1316571"
       transform="matrix(0.98074882,0.19527354,-0.18209997,0.98328002,0,0)" /><ellipse
       style="fill:#000000;fill-opacity:1;fill-rule:evenodd;stroke:none;stroke-width:0.300776;stroke-linecap:round;stroke-linejoin:round;stroke-dasharray:none"
       id="path7-1-4"
       cx="113.85947"
       cy="134.74626"
       rx="3.9503827"
       ry="6.1316571"
       transform="matrix(0.98074882,0.19527354,-0.18209997,0.98328002,0,0)" /></g><g
     id="layer4"
     style="display:inline"><path
       style="fill:#dfdfdf;fill-opacity:1;stroke:#000000;stroke-width:0.264583px;stroke-linecap:butt;stroke-linejoin:miter;stroke-opacity:1"
       d="m 139.56771,195.92396 c 1.91778,-25.24784 19.75983,-35.84243 28.97187,-39.6875 39.70786,-16.57391 52.1456,-3.16545 64.16146,9.65729 5.70887,6.09223 14.60925,22.95842 12.83229,41.14271 -1.91862,19.63394 -16.68804,29.48471 -30.95625,36.77708 -32.79003,16.75872 -47.36945,4.10131 -48.28646,3.57187 -21.89753,-12.64254 -27.75574,-37.86414 -26.72291,-51.46145 z"
       id="path8" /><ellipse
       style="fill:#ffffff;fill-opacity:1;fill-rule:evenodd;stroke:#ffffff;stroke-width:0.286864;stroke-linecap:round;stroke-linejoin:round;stroke-dasharray:none"
       id="path9"
       cx="139.54391"
       cy="220.37354"
       rx="21.078917"
       ry="36.306091"
       transform="matrix(0.9937499,-0.11162947,0.10701811,0.99425707,0,0)" /><ellipse
       style="fill:#ffffff;fill-opacity:1;fill-rule:evenodd;stroke:#ffffff;stroke-width:0.262186;stroke-linecap:round;stroke-linejoin:round;stroke-dasharray:none"
       id="path9-9"
       cx="304.26749"
       cy="-30.527527"
       rx="13.048241"
       ry="35.433979"
       transform="matrix(0.5875064,0.80921952,-0.90175015,0.43225763,0,0)" /><ellipse
       style="fill:#ffffff;fill-opacity:1;fill-rule:evenodd;stroke:#ffffff;stroke-width:0.286864;stroke-linecap:round;stroke-linejoin:round;stroke-dasharray:none"
       id="path9-3"
       cx="43.900669"
       cy="274.23993"
       rx="25.645239"
       ry="35.650902"
       transform="matrix(0.7614297,-0.64824749,0.64470812,0.76442883,0,0)" /><ellipse
       style="fill:#000000;fill-opacity:1;fill-rule:evenodd;stroke:none;stroke-width:0.264583;stroke-linecap:round;stroke-linejoin:round;stroke-dasharray:none"
       id="path10"
       cx="139.19496"
       cy="219.94273"
       rx="4.0224066"
       ry="6.7351923"
       transform="rotate(-6.0097699)" /><ellipse
       style="fill:#000000;fill-opacity:1;fill-rule:evenodd;stroke:none;stroke-width:0.264583;stroke-linecap:round;stroke-linejoin:round;stroke-dasharray:none"
       id="path11"
       cx="253.48277"
       cy="-7.7136664"
       rx="6.8769073"
       ry="4.9162898"
       transform="rotate(43.009579)" /><ellipse
       style="fill:#000000;fill-opacity:1;fill-rule:evenodd;stroke:none;stroke-width:0.264583;stroke-linecap:round;stroke-linejoin:round;stroke-dasharray:none"
       id="path11-7"
       cx="271.31558"
       cy="-27.685135"
       rx="6.8769073"
       ry="4.9162898"
       transform="rotate(43.009579)" /><ellipse
       style="fill:#000000;fill-opacity:1;fill-rule:evenodd;stroke:none;stroke-width:0.264583;stroke-linecap:round;stroke-linejoin:round;stroke-dasharray:none"
       id="path11-5"
       cx="282.68253"
       cy="4.2083559"
       rx="6.8769073"
       ry="4.9162898"
       transform="rotate(43.009579)" /><ellipse
       style="fill:#000000;fill-opacity:1;fill-rule:evenodd;stroke:none;stroke-width:0.264583;stroke-linecap:round;stroke-linejoin:round;stroke-dasharray:none"
       id="path11-3"
       cx="300.19086"
       cy="-16.221733"
       rx="6.8769073"
       ry="4.9162898"
       transform="rotate(43.009579)" /><ellipse
       style="fill:#000000;fill-opacity:1;fill-rule:evenodd;stroke:none;stroke-width:0.414283;stroke-linecap:round;stroke-linejoin:round;stroke-dasharray:none"
       id="path12"
       cx="288.7384"
       cy="-89.020638"
       rx="2.3634071"
       ry="6.7069635"
       transform="matrix(0.41725062,0.90879146,-0.9135212,0.40679112,0,0)" /><ellipse
       style="fill:#000000;fill-opacity:1;fill-rule:evenodd;stroke:none;stroke-width:0.414283;stroke-linecap:round;stroke-linejoin:round;stroke-dasharray:none"
       id="path12-4"
       cx="296.46103"
       cy="-114.64489"
       rx="2.3634071"
       ry="6.7069635"
       transform="matrix(0.41725062,0.90879146,-0.9135212,0.40679112,0,0)" /><ellipse
       style="fill:#000000;fill-opacity:1;fill-rule:evenodd;stroke:none;stroke-width:0.414283;stroke-linecap:round;stroke-linejoin:round;stroke-dasharray:none"
       id="path12-43"
       cx="297.14285"
       cy="-90.762482"
       rx="2.3634071"
       ry="6.7069635"
       transform="matrix(0.41725062,0.90879146,-0.9135212,0.40679112,0,0)" /><ellipse
       style="fill:#000000;fill-opacity:1;fill-rule:evenodd;stroke:none;stroke-width:0.414283;stroke-linecap:round;stroke-linejoin:round;stroke-dasharray:none"
       id="path12-46"
       cx="305.49402"
       cy="-92.584084"
       rx="2.3634071"
       ry="6.7069635"
       transform="matrix(0.41725062,0.90879146,-0.9135212,0.40679112,0,0)" /><ellipse
       style="fill:#000000;fill-opacity:1;fill-rule:evenodd;stroke:none;stroke-width:0.414283;stroke-linecap:round;stroke-linejoin:round;stroke-dasharray:none"
       id="path12-7"
       cx="297.98044"
       cy="-67.191933"
       rx="2.3634071"
       ry="6.7069635"
       transform="matrix(0.41725062,0.90879146,-0.9135212,0.40679112,0,0)" /></g></svg>
